<svg width="778" height="154" viewBox="0 0 778 154" fill="none" xmlns="http://www.w3.org/2000/svg">
<path d="M107.022 6L174 6.5L64.5224 147.5H0L107.022 6Z" fill="black"/>
<path d="M154.026 147.5H77.0234L105.526 111H182.026L154.026 147.5Z" fill="black"/>
<path d="M317.312 121H266.88V33.832H279.68V110.76L278.144 108.968H317.312V121ZM348.276 122.792C343.412 122.792 339.231 121.939 335.732 120.232C332.233 118.525 329.545 116.093 327.668 112.936C325.876 109.693 324.98 105.853 324.98 101.416C324.98 97.32 325.919 93.6933 327.796 90.536C329.673 87.2933 332.361 84.7333 335.86 82.856C339.359 80.9787 343.497 80.04 348.276 80.04C354.249 80.04 359.028 81.4053 362.612 84.136C366.281 86.7813 368.841 90.4507 370.292 95.144H363.124V79.144C363.124 76.4987 362.228 74.0667 360.436 71.848C358.644 69.6293 355.487 68.52 350.964 68.52C348.575 68.52 345.929 68.8187 343.028 69.416C340.212 69.928 337.268 70.8667 334.196 72.232L330.356 62.376C333.855 60.6693 337.481 59.3893 341.236 58.536C344.991 57.6827 348.66 57.256 352.244 57.256C357.62 57.256 362.057 58.2373 365.556 60.2C369.055 62.1627 371.657 64.808 373.364 68.136C375.071 71.3787 375.924 75.048 375.924 79.144V121H366.708L363.508 109.608L370.292 107.688C368.756 112.723 366.025 116.52 362.1 119.08C358.175 121.555 353.567 122.792 348.276 122.792ZM350.58 111.4C354.335 111.4 357.364 110.547 359.668 108.84C361.972 107.048 363.124 104.573 363.124 101.416C363.124 98.1733 361.972 95.6987 359.668 93.992C357.364 92.2853 354.335 91.432 350.58 91.432C346.825 91.432 343.796 92.2853 341.492 93.992C339.188 95.6987 338.036 98.1733 338.036 101.416C338.036 104.573 339.188 107.048 341.492 108.84C343.796 110.547 346.825 111.4 350.58 111.4ZM427.66 57.256C432.097 57.256 435.596 58.024 438.156 59.56C440.716 61.0107 442.593 63.016 443.788 65.576C444.983 68.0507 445.751 70.8667 446.092 74.024C446.433 77.1813 446.604 80.424 446.604 83.752V121H433.804V81.064C433.804 76.6267 432.78 73.64 430.732 72.104C428.769 70.568 426.423 69.8 423.692 69.8C420.961 69.8 418.188 70.3547 415.372 71.464C412.556 72.5733 410.039 74.0667 407.82 75.944C405.601 77.8213 403.895 79.912 402.7 82.216V75.048H404.748V121H391.948V58.536H401.676L404.364 69.544L401.164 69.928C403.553 67.1973 406.156 64.8933 408.972 63.016C411.788 61.1387 414.775 59.7307 417.932 58.792C421.089 57.768 424.332 57.256 427.66 57.256ZM489.471 146.344C485.887 146.344 482.474 145.832 479.231 144.808C476.074 143.869 473.172 142.291 470.527 140.072C467.967 137.853 465.663 134.909 463.615 131.24L462.719 129.576L472.831 124.072C475.05 127.741 477.396 130.472 479.871 132.264C482.431 134.141 485.631 135.08 489.471 135.08C494.676 135.08 498.772 133.459 501.759 130.216C504.831 126.973 506.367 121.981 506.367 115.24V101.928H507.647V71.08H506.367L509.439 58.536H519.167V113.192C519.167 120.531 517.844 126.675 515.199 131.624C512.639 136.573 509.14 140.243 504.703 142.632C500.266 145.107 495.188 146.344 489.471 146.344ZM487.935 117.16C482.132 117.16 477.012 115.923 472.575 113.448C468.223 110.973 464.81 107.517 462.335 103.08C459.946 98.5573 458.751 93.3093 458.751 87.336C458.751 81.2773 459.946 76.0293 462.335 71.592C464.81 67.0693 468.223 63.5707 472.575 61.096C477.012 58.536 482.132 57.256 487.935 57.256C493.482 57.256 498.303 58.536 502.399 61.096C506.58 63.5707 509.823 67.0693 512.127 71.592C514.431 76.0293 515.583 81.2773 515.583 87.336C515.583 93.3093 514.431 98.5573 512.127 103.08C509.823 107.517 506.58 110.973 502.399 113.448C498.303 115.923 493.482 117.16 487.935 117.16ZM489.471 106.152C494.762 106.152 498.986 104.445 502.143 101.032C505.386 97.5333 507.007 92.9253 507.007 87.208C507.007 81.4907 505.386 76.9253 502.143 73.512C498.986 70.0133 494.762 68.264 489.471 68.264C484.18 68.264 479.914 70.0133 476.671 73.512C473.428 77.0107 471.807 81.6187 471.807 87.336C471.807 92.968 473.428 97.5333 476.671 101.032C479.914 104.445 484.18 106.152 489.471 106.152ZM558.744 122.152C553.283 122.152 548.931 120.573 545.688 117.416C542.531 114.173 540.952 109.181 540.952 102.44V59.304V58.536L543.384 44.456H553.752V102.696C553.752 105.085 554.349 106.877 555.544 108.072C556.824 109.267 558.403 109.864 560.28 109.864C561.731 109.864 563.011 109.779 564.12 109.608C565.229 109.437 566.211 109.224 567.064 108.968V120.872C565.955 121.213 564.717 121.512 563.352 121.768C562.072 122.024 560.536 122.152 558.744 122.152ZM531.352 70.312V58.536H567.064V70.312H531.352ZM591.56 58.536L594.632 75.432V121H581.832V58.536H591.56ZM592.712 80.68L589.64 79.272V69.928L590.792 68.52C591.645 66.984 592.968 65.3627 594.76 63.656C596.637 61.864 598.813 60.3707 601.288 59.176C603.763 57.896 606.28 57.256 608.84 57.256C610.12 57.256 611.315 57.3413 612.424 57.512C613.619 57.6827 614.515 57.9813 615.112 58.408V69.928H611.144C605.341 69.928 601.117 70.824 598.472 72.616C595.827 74.3227 593.907 77.0107 592.712 80.68ZM641.666 122.792C636.802 122.792 632.621 121.939 629.122 120.232C625.623 118.525 622.935 116.093 621.058 112.936C619.266 109.693 618.37 105.853 618.37 101.416C618.37 97.32 619.309 93.6933 621.186 90.536C623.063 87.2933 625.751 84.7333 629.25 82.856C632.749 80.9787 636.887 80.04 641.666 80.04C647.639 80.04 652.418 81.4053 656.002 84.136C659.671 86.7813 662.231 90.4507 663.682 95.144H656.514V79.144C656.514 76.4987 655.618 74.0667 653.826 71.848C652.034 69.6293 648.877 68.52 644.354 68.52C641.965 68.52 639.319 68.8187 636.418 69.416C633.602 69.928 630.658 70.8667 627.586 72.232L623.746 62.376C627.245 60.6693 630.871 59.3893 634.626 58.536C638.381 57.6827 642.05 57.256 645.634 57.256C651.01 57.256 655.447 58.2373 658.946 60.2C662.445 62.1627 665.047 64.808 666.754 68.136C668.461 71.3787 669.314 75.048 669.314 79.144V121H660.098L656.898 109.608L663.682 107.688C662.146 112.723 659.415 116.52 655.49 119.08C651.565 121.555 646.957 122.792 641.666 122.792ZM643.97 111.4C647.725 111.4 650.754 110.547 653.058 108.84C655.362 107.048 656.514 104.573 656.514 101.416C656.514 98.1733 655.362 95.6987 653.058 93.992C650.754 92.2853 647.725 91.432 643.97 91.432C640.215 91.432 637.186 92.2853 634.882 93.992C632.578 95.6987 631.426 98.1733 631.426 101.416C631.426 104.573 632.578 107.048 634.882 108.84C637.186 110.547 640.215 111.4 643.97 111.4ZM698.394 121H685.594V58.536H698.394V121ZM683.674 39.336C683.674 36.8613 684.399 34.856 685.85 33.32C687.386 31.6987 689.434 30.888 691.994 30.888C694.469 30.888 696.474 31.6987 698.01 33.32C699.546 34.856 700.314 36.8613 700.314 39.336C700.314 41.7253 699.546 43.7307 698.01 45.352C696.474 46.888 694.469 47.656 691.994 47.656C689.434 47.656 687.386 46.888 685.85 45.352C684.399 43.7307 683.674 41.7253 683.674 39.336ZM750.928 57.256C755.365 57.256 758.864 58.024 761.424 59.56C763.984 61.0107 765.861 63.016 767.056 65.576C768.251 68.0507 769.019 70.8667 769.36 74.024C769.701 77.1813 769.872 80.424 769.872 83.752V121H757.072V81.064C757.072 76.6267 756.048 73.64 754 72.104C752.037 70.568 749.691 69.8 746.96 69.8C744.229 69.8 741.456 70.3547 738.64 71.464C735.824 72.5733 733.307 74.0667 731.088 75.944C728.869 77.8213 727.163 79.912 725.968 82.216V75.048H728.016V121H715.216V58.536H724.944L727.632 69.544L724.432 69.928C726.821 67.1973 729.424 64.8933 732.24 63.016C735.056 61.1387 738.043 59.7307 741.2 58.792C744.357 57.768 747.6 57.256 750.928 57.256Z" fill="black"/>
</svg>
